# xmcd
#
# Track frame offsets:
#  150
#  15395
#  29892
#
# Disc length: 597 seconds
#
# Revision: 0
# Processed by: cddbd v1.5.1PL2 Copyright (c) Steve Scherf et al.
# Submitted via: Collectorz.com_Music_Collector 6.11
#
DISCID=1d025303
DTITLE=28 Days - What's the Deal?
DYEAR=1900
DGENRE=Avant Rock
TTITLE0=What's the Deal?
TTITLE1=Unmarked Graves
TTITLE2=Stealing Chairs (Live)
EXTD=
EXTT0=
EXTT1=
EXTT2=
PLAYORDER=
